<svg width="20" height="20" viewBox="0 0 20 20" fill="none" xmlns="http://www.w3.org/2000/svg">
<rect width="20" height="20" rx="4" fill="white"/>
<g clip-path="url(#clip0)">
<path d="M8.75241 16.6619H10.9375L9.79463 14.6875L8.75241 16.6619Z" fill="#EC2229"/>
<path d="M9.79221 14.8426C8.95224 13.7808 7.87325 12.0453 7.57858 9.74831C7.48897 9.06654 7.47759 8.37585 7.54471 7.69121C7.83938 4.89906 9.38723 3.34526 9.514 3.23143C9.52416 3.22122 9.79076 2.98999 9.79076 2.98999C9.79076 2.98999 10.2224 3.2692 10.7149 3.95474C11.6217 5.21962 11.8646 6.47686 11.9928 7.34513C12.0804 7.94847 12.2797 9.62631 11.6792 11.5487C11.4554 12.2636 11.1453 12.9452 10.7565 13.5767C10.4739 14.03 10.151 14.4538 9.79221 14.8426" fill="#EC2229"/>
</g>
<defs>
<clipPath id="clip0">
<rect width="6.5625" height="15" fill="white" transform="translate(6.5625 2.5)"/>
</clipPath>
</defs>
</svg>
